<?xml version="1.0" standalone="no"?>
<!DOCTYPE svg PUBLIC "-//W3C//DTD SVG 20010904//EN"
 "http://www.w3.org/TR/2001/REC-SVG-20010904/DTD/svg10.dtd">
<svg version="1.0" xmlns="http://www.w3.org/2000/svg"
 width="150.000000pt" height="150.000000pt" viewBox="0 0 500.000000 500.000000"
 preserveAspectRatio="xMidYMid meet">

<g transform="translate(0.000000,500.000000) scale(0.100000,-0.100000)"
fill="#000000" stroke="none">
<path d="M2422 2953 c-22 -4 -20 -7 24 -46 107 -94 75 -87 368 -87 l261 0 -45
21 c-127 57 -275 98 -395 108 -122 11 -172 12 -213 4z"/>
<path d="M2185 2925 c-5 -2 -28 -9 -50 -14 -69 -19 -72 -25 -39 -64 16 -18 34
-42 39 -51 9 -16 24 -17 173 -10 89 4 162 10 162 14 0 18 -75 91 -113 109 -39
19 -138 28 -172 16z"/>
<path d="M1869 2814 c-35 -31 -81 -68 -101 -81 -43 -29 -52 -44 -10 -18 45 29
192 154 181 155 -3 0 -34 -25 -70 -56z"/>
<path d="M1994 2852 c-39 -22 -64 -42 -87 -69 -18 -21 -18 -21 0 -17 10 3 60
8 111 12 l94 7 -31 43 c-34 47 -42 49 -87 24z"/>
<path d="M2875 2788 c163 -14 336 -47 375 -71 19 -12 53 -37 74 -57 l39 -35
-22 43 c-12 23 -19 47 -16 52 3 6 54 10 113 11 l107 1 -75 19 c-124 31 -325
49 -517 48 -176 -2 -177 -2 -78 -11z"/>
<path d="M3021 2711 c-9 -6 -11 -18 -7 -36 12 -47 116 -71 116 -26 0 38 -78
82 -109 62z"/>
<path d="M3167 2713 c-29 -28 34 -107 80 -101 21 2 29 9 32 28 3 23 4 24 12 5
l9 -20 -3 20 c-1 11 -6 19 -10 17 -4 -2 -24 11 -43 27 -33 30 -63 39 -77 24z"/>
<path d="M3368 2713 c-10 -2 -18 -9 -18 -15 0 -17 59 -106 75 -112 7 -2 60 -6
117 -7 l103 -1 -2 28 c-5 60 -22 83 -76 99 -47 14 -160 19 -199 8z"/>
<path d="M3640 2667 c0 -14 34 -77 41 -77 12 0 -10 57 -27 71 -8 6 -14 9 -14
6z"/>
<path d="M2772 2616 c39 -40 51 -87 46 -175 -5 -80 -32 -151 -65 -170 -29 -17
-5 -13 28 5 70 36 97 192 50 287 -14 30 -35 54 -55 64 l-31 16 27 -27z"/>
<path d="M1916 2530 c14 -53 20 -55 222 -56 l187 -2 -175 12 c-173 12 -209 20
-230 54 -9 14 -10 13 -4 -8z"/>
<path d="M2043 2433 c42 -2 112 -2 155 0 42 1 7 3 -78 3 -85 0 -120 -2 -77 -3z"/>
<path d="M2913 2389 c3 -22 8 -43 11 -46 25 -25 666 -28 751 -3 48 14 68 31
60 52 -5 13 -12 13 -58 0 -78 -23 -511 -21 -555 2 -18 9 -32 21 -32 26 0 6
-39 10 -91 10 l-92 0 6 -41z"/>
<path d="M1823 2363 c9 -2 23 -2 30 0 6 3 -1 5 -18 5 -16 0 -22 -2 -12 -5z"/>
<path d="M1975 2340 c64 -11 158 -18 225 -18 l115 0 -195 19 c-244 22 -286 22
-145 -1z"/>
<path d="M2851 2332 c-8 -18 -30 -46 -50 -63 l-36 -30 55 7 c37 4 63 14 78 29
l24 22 -25 7 c-19 4 -27 14 -29 34 l-3 27 -14 -33z"/>
<path d="M3395 2291 l-100 -6 40 -25 c50 -31 123 -32 182 -2 57 30 62 42 16
40 -21 -1 -83 -4 -138 -7z"/>
<path d="M1400 1988 c-65 -33 -93 -91 -87 -177 8 -100 58 -152 155 -159 76 -5
135 17 130 50 -3 25 -10 26 -74 7 -72 -21 -124 7 -143 78 -30 112 56 199 155
158 44 -18 64 -14 64 14 0 13 -13 24 -40 35 -56 22 -108 20 -160 -6z"/>
<path d="M1863 1998 c-19 -26 -143 -309 -143 -328 0 -37 38 -24 60 20 l20 40
89 0 89 0 19 -37 c20 -42 63 -60 63 -26 0 10 -33 90 -73 178 -56 123 -78 161
-94 163 -11 2 -24 -3 -30 -10z m61 -138 c16 -39 26 -73 23 -76 -2 -3 -32 -4
-65 -2 l-60 3 30 73 c17 39 34 72 37 72 3 0 19 -32 35 -70z"/>
<path d="M3002 1998 c-14 -14 -17 -314 -3 -336 5 -8 17 -12 27 -10 17 3 20 16
24 126 l5 123 83 -110 c96 -126 116 -146 137 -138 13 5 15 33 15 177 0 149 -2
171 -16 177 -33 12 -44 -24 -44 -140 l0 -110 -95 124 c-53 68 -101 125 -108
127 -7 1 -18 -3 -25 -10z"/>
<path d="M2196 1984 c-8 -20 -8 -298 0 -318 3 -9 17 -16 30 -16 22 0 23 4 26
73 l3 72 40 -2 c45 -3 63 -20 101 -95 19 -38 30 -48 49 -48 16 0 25 6 25 15 0
24 -48 113 -67 123 -14 8 -12 12 14 26 60 30 65 132 10 171 -32 22 -222 22
-231 -1z m200 -49 c19 -26 17 -52 -6 -75 -16 -16 -33 -20 -80 -20 l-60 0 0 53
c0 30 3 57 8 61 4 4 33 6 66 4 42 -3 62 -10 72 -23z"/>
<path d="M2622 1828 l3 -173 110 0 c106 0 110 1 113 23 3 21 1 22 -88 22 l-91
0 3 53 3 52 83 3 c73 2 82 5 82 22 0 23 -38 33 -112 29 l-53 -3 0 49 0 50 88
3 c79 3 87 5 87 22 0 19 -7 20 -115 20 l-115 0 2 -172z"/>
<path d="M3410 1980 c0 -18 7 -20 60 -20 l59 0 3 -152 3 -153 25 0 25 0 5 150
5 150 63 3 c54 3 62 6 62 22 0 19 -8 20 -155 20 -148 0 -155 -1 -155 -20z"/>
</g>
</svg>
